<svg width="81" height="85" viewBox="0 0 81 85" fill="none" xmlns="http://www.w3.org/2000/svg">
<path fill-rule="evenodd" clip-rule="evenodd" d="M0 80.669V84.8691H80.6669V80.669H0Z" fill="white"/>
<path fill-rule="evenodd" clip-rule="evenodd" d="M77.306 72.5472H3.36108V76.7473H77.306V72.5472Z" fill="white"/>
<path fill-rule="evenodd" clip-rule="evenodd" d="M48.175 36.6943V32.4919H32.4895V36.6943H35.2919V64.1412H32.4895V68.3447H48.175V64.1412H45.3749V36.6943H48.175Z" fill="white"/>
<path fill-rule="evenodd" clip-rule="evenodd" d="M71.8437 36.6943V32.4919H56.1604V36.6943H58.9605V64.1412H56.1604V68.3447H71.8437V64.1412H69.0436V36.6943H71.8437Z" fill="white"/>
<path fill-rule="evenodd" clip-rule="evenodd" d="M24.5077 36.6943V32.4919H8.82104V36.6943H11.6234V64.1412H8.82104V68.3447H24.5077V64.1412H21.7076V36.6943H24.5077Z" fill="white"/>
<path fill-rule="evenodd" clip-rule="evenodd" d="M77.306 23.5273L40.3336 0.000110626L3.36108 23.5273V27.7297H77.306V23.5273Z" fill="white"/>
</svg>
