<svg width="159" height="153" viewBox="0 0 159 153" fill="none" xmlns="http://www.w3.org/2000/svg">
<g filter="url(#filter0_d_2769_116)">
<path d="M5 11H78.5C115.779 11 146 41.2208 146 78.5V146H5V11Z" fill="#C9E9EE"/>
</g>
<path fill-rule="evenodd" clip-rule="evenodd" d="M57.3697 49.0179L83.7792 49.0045V59.2957L57.3697 59.3091C56.1769 59.3104 55.0149 58.9299 54.054 58.2232L49.7731 55.0639C49.6326 54.96 49.5185 54.8246 49.4398 54.6687C49.3612 54.5127 49.3202 54.3404 49.3202 54.1657C49.3202 53.991 49.3612 53.8188 49.4398 53.6628C49.5185 53.5068 49.6326 53.3714 49.7731 53.2675L54.0585 50.1037C55.0164 49.3973 56.175 49.0152 57.3652 49.0134L57.3697 49.0179ZM94.6513 59.2867L89.3649 59.2912V49H94.6513H94.6692C97.5023 49.0447 99.6696 51.5605 99.6696 54.1389C99.6696 56.7218 97.5023 59.242 94.6692 59.2867H94.6513ZM68.148 69.6092C69.645 70.208 70.9185 70.8649 72.0223 71.5173V109C70.3194 107.72 68.4566 106.669 66.4812 105.872C63.1968 104.558 58.46 103.472 51.2343 103.472C50.6417 103.472 50.0734 103.237 49.6544 102.818C49.2354 102.399 49 101.831 49 101.238V69.1177C49 68.5251 49.2354 67.9568 49.6544 67.5378C50.0734 67.1188 50.6417 66.8834 51.2343 66.8834C58.9203 66.8834 64.238 68.0407 68.148 69.6092ZM83.1446 105.872C80.7316 106.842 79.038 107.954 77.6036 108.996V71.5128C78.7073 70.8604 79.9853 70.2035 81.4823 69.6048C85.3923 68.0363 90.71 66.8789 98.396 66.8789C98.9886 66.8789 99.5569 67.1143 99.9759 67.5333C100.395 67.9523 100.63 68.5206 100.63 69.1132V101.234C100.63 101.826 100.395 102.394 99.9759 102.813C99.5569 103.232 98.9886 103.468 98.396 103.468C91.1703 103.468 86.4335 104.554 83.1446 105.872Z" fill="white"/>
<defs>
<filter id="filter0_d_2769_116" x="0.2" y="0.2" width="158.6" height="152.6" filterUnits="userSpaceOnUse" color-interpolation-filters="sRGB">
<feFlood flood-opacity="0" result="BackgroundImageFix"/>
<feColorMatrix in="SourceAlpha" type="matrix" values="0 0 0 0 0 0 0 0 0 0 0 0 0 0 0 0 0 0 127 0" result="hardAlpha"/>
<feOffset dx="4" dy="-2"/>
<feGaussianBlur stdDeviation="4.4"/>
<feComposite in2="hardAlpha" operator="out"/>
<feColorMatrix type="matrix" values="0 0 0 0 0.474187 0 0 0 0 0.475 0 0 0 0 0.444917 0 0 0 0.2 0"/>
<feBlend mode="normal" in2="BackgroundImageFix" result="effect1_dropShadow_2769_116"/>
<feBlend mode="normal" in="SourceGraphic" in2="effect1_dropShadow_2769_116" result="shape"/>
</filter>
</defs>
</svg>
