<svg width="13" height="25" viewBox="0 0 13 25" fill="none" xmlns="http://www.w3.org/2000/svg">
<path d="M0.393572 12.8362H3.06768V23.712C3.06768 23.8151 3.10915 23.9139 3.18296 23.9869C3.25677 24.0598 3.35687 24.1007 3.46126 24.1007H7.996C8.10039 24.1007 8.20049 24.0598 8.2743 23.9869C8.34811 23.9139 8.38958 23.8151 8.38958 23.712V12.8875H11.4637C11.5603 12.8876 11.6535 12.8525 11.7256 12.789C11.7977 12.7254 11.8437 12.638 11.8547 12.5432L12.3214 8.53927C12.3278 8.48483 12.3224 8.42967 12.3056 8.37743C12.2889 8.32519 12.2611 8.27704 12.2242 8.23613C12.1873 8.19523 12.142 8.1625 12.0914 8.14009C12.0408 8.11767 11.9859 8.10609 11.9304 8.10609H8.38958V5.59581C8.38958 4.83917 8.80177 4.4542 9.61524 4.4542H11.9304C12.0348 4.4542 12.1349 4.41323 12.2087 4.34032C12.2826 4.26741 12.324 4.16852 12.324 4.06541V0.39132C12.3244 0.340104 12.3144 0.289328 12.2949 0.241906C12.2753 0.194485 12.2464 0.151355 12.2099 0.114992C12.1734 0.0786295 12.1299 0.0497517 12.0821 0.0300177C12.0343 0.0102837 11.9829 8.24598e-05 11.9311 0L8.74014 0C8.71766 0 8.66758 0 8.59375 0C7.12294 0.0051847 5.7033 0.533884 4.5951 1.48917C4.07216 1.94075 3.67096 2.51358 3.42755 3.1562C3.18415 3.79882 3.10616 4.49111 3.20059 5.17088V8.10546H0.393572C0.28919 8.10546 0.189084 8.14642 0.115275 8.21933C0.0414654 8.29224 5.23838e-07 8.39113 5.23838e-07 8.49424V12.4468C-8.38787e-05 12.4979 0.0100319 12.5485 0.029773 12.5957C0.0495141 12.643 0.0784894 12.6859 0.115044 12.7221C0.151599 12.7582 0.195017 12.7869 0.242809 12.8065C0.290602 12.8261 0.341834 12.8362 0.393572 12.8362Z" fill="#343434"/>
</svg>
