<svg width="159" height="153" viewBox="0 0 159 153" fill="none" xmlns="http://www.w3.org/2000/svg">
<g filter="url(#filter0_d_2769_99)">
<path d="M5 11H78.5C115.779 11 146 41.2208 146 78.5V146H5V11Z" fill="#C9E9EE"/>
</g>
<path fill-rule="evenodd" clip-rule="evenodd" d="M44.2174 48C42.8337 48 41.5066 48.5497 40.5281 49.5281C39.5497 50.5066 39 51.8337 39 53.2174V100.174C39 102.25 39.8245 104.24 41.2922 105.708C42.7599 107.175 44.7505 108 46.8261 108H102.913C105.335 108 107.657 107.038 109.369 105.326C111.082 103.613 112.043 101.291 112.043 98.8696V64.9565C112.043 64.2647 111.769 63.6011 111.279 63.1119C110.79 62.6227 110.127 62.3478 109.435 62.3478H104.317V96.047C104.317 96.9118 103.973 97.7412 103.361 98.3527C102.75 98.9643 101.92 99.3078 101.056 99.3078C100.191 99.3078 99.3614 98.9643 98.7499 98.3527C98.1383 97.7412 97.7948 96.9118 97.7948 96.047V61.007V60.8504V53.2174C97.7948 51.8337 97.2451 50.5066 96.2666 49.5281C95.2882 48.5497 93.9611 48 92.5774 48H44.2174ZM53.5409 62.5409C53.5409 61.849 53.8157 61.1855 54.3049 60.6962C54.7942 60.207 55.4577 59.9322 56.1496 59.9322H79.6278C80.3197 59.9322 80.9832 60.207 81.4725 60.6962C81.9617 61.1855 82.2365 61.849 82.2365 62.5409V75.5844C82.2365 76.2762 81.9617 76.9398 81.4725 77.429C80.9832 77.9182 80.3197 78.193 79.6278 78.193H56.1496C55.4577 78.193 54.7942 77.9182 54.3049 77.429C53.8157 76.9398 53.5409 76.2762 53.5409 75.5844V62.5409ZM52.8887 92.3478C52.8887 90.5478 54.3496 89.087 56.1496 89.087H79.6278C80.4927 89.087 81.3221 89.4305 81.9336 90.042C82.5451 90.6536 82.8887 91.483 82.8887 92.3478C82.8887 93.2127 82.5451 94.0421 81.9336 94.6536C81.3221 95.2651 80.4927 95.6087 79.6278 95.6087H56.1496C55.2847 95.6087 54.4553 95.2651 53.8438 94.6536C53.2322 94.0421 52.8887 93.2127 52.8887 92.3478Z" fill="white"/>
<defs>
<filter id="filter0_d_2769_99" x="0.2" y="0.2" width="158.6" height="152.6" filterUnits="userSpaceOnUse" color-interpolation-filters="sRGB">
<feFlood flood-opacity="0" result="BackgroundImageFix"/>
<feColorMatrix in="SourceAlpha" type="matrix" values="0 0 0 0 0 0 0 0 0 0 0 0 0 0 0 0 0 0 127 0" result="hardAlpha"/>
<feOffset dx="4" dy="-2"/>
<feGaussianBlur stdDeviation="4.4"/>
<feComposite in2="hardAlpha" operator="out"/>
<feColorMatrix type="matrix" values="0 0 0 0 0.474187 0 0 0 0 0.475 0 0 0 0 0.444917 0 0 0 0.2 0"/>
<feBlend mode="normal" in2="BackgroundImageFix" result="effect1_dropShadow_2769_99"/>
<feBlend mode="normal" in="SourceGraphic" in2="effect1_dropShadow_2769_99" result="shape"/>
</filter>
</defs>
</svg>
