<svg width="110" height="25" viewBox="0 0 110 25" fill="none" xmlns="http://www.w3.org/2000/svg">
<path d="M53.2646 1.71741H44.4769C42.7598 1.71942 41.1135 2.39415 39.8993 3.59359C38.6851 4.79304 38.002 6.41925 38 8.11552V16.7962C38.002 18.4925 38.6851 20.1187 39.8993 21.3181C41.1135 22.5176 42.7598 23.1923 44.4769 23.1943H53.2646C54.9817 23.1923 56.628 22.5176 57.8422 21.3181C59.0564 20.1187 59.7395 18.4925 59.7415 16.7962V8.11552C59.7395 6.41925 59.0564 4.79304 57.8422 3.59359C56.628 2.39415 54.9817 1.71942 53.2646 1.71741V1.71741ZM57.5541 16.7962C57.5541 17.92 57.1021 18.9978 56.2977 19.7924C55.4933 20.5871 54.4022 21.0335 53.2646 21.0335H44.4769C43.3393 21.0335 42.2482 20.5871 41.4438 19.7924C40.6394 18.9978 40.1874 17.92 40.1874 16.7962V8.11552C40.1874 6.99172 40.6394 5.91395 41.4438 5.1193C42.2482 4.32466 43.3393 3.87823 44.4769 3.87823H53.2646C54.4022 3.87823 55.4933 4.32466 56.2977 5.1193C57.1021 5.91395 57.5541 6.99172 57.5541 8.11552V16.7962Z" fill="#343434"/>
<path d="M54.5054 8.2748C55.2496 8.2748 55.853 7.67878 55.853 6.94355C55.853 6.20832 55.2496 5.6123 54.5054 5.6123C53.7611 5.6123 53.1577 6.20832 53.1577 6.94355C53.1577 7.67878 53.7611 8.2748 54.5054 8.2748Z" fill="#343434"/>
<path d="M0.393572 12.8362H3.06768V23.712C3.06768 23.8151 3.10915 23.9139 3.18296 23.9869C3.25677 24.0598 3.35687 24.1007 3.46126 24.1007H7.996C8.10039 24.1007 8.20049 24.0598 8.2743 23.9869C8.34811 23.9139 8.38958 23.8151 8.38958 23.712V12.8875H11.4637C11.5603 12.8876 11.6535 12.8525 11.7256 12.789C11.7977 12.7254 11.8437 12.638 11.8547 12.5432L12.3214 8.53927C12.3278 8.48483 12.3224 8.42967 12.3056 8.37743C12.2889 8.32519 12.2611 8.27704 12.2242 8.23613C12.1873 8.19523 12.142 8.1625 12.0914 8.14009C12.0408 8.11767 11.9859 8.10609 11.9304 8.10609H8.38958V5.59581C8.38958 4.83917 8.80177 4.4542 9.61524 4.4542H11.9304C12.0348 4.4542 12.1349 4.41323 12.2087 4.34032C12.2826 4.26741 12.324 4.16852 12.324 4.06541V0.39132C12.3244 0.340104 12.3144 0.289328 12.2949 0.241906C12.2753 0.194485 12.2464 0.151355 12.2099 0.114992C12.1734 0.0786295 12.1299 0.0497517 12.0821 0.0300177C12.0343 0.0102837 11.9829 8.24598e-05 11.9311 0L8.74014 0C8.71766 0 8.66758 0 8.59375 0C7.12294 0.0051847 5.7033 0.533884 4.5951 1.48917C4.07216 1.94075 3.67096 2.51358 3.42755 3.1562C3.18415 3.79882 3.10616 4.49111 3.20059 5.17088V8.10546H0.393572C0.28919 8.10546 0.189084 8.14642 0.115275 8.21933C0.0414654 8.29224 5.23838e-07 8.39113 5.23838e-07 8.49424V12.4468C-8.38787e-05 12.4979 0.0100319 12.5485 0.029773 12.5957C0.0495141 12.643 0.0784894 12.6859 0.115044 12.7221C0.151599 12.7582 0.195017 12.7869 0.242809 12.8065C0.290602 12.8261 0.341834 12.8362 0.393572 12.8362Z" fill="#343434"/>
<path d="M48.8706 6.901C47.7584 6.901 46.6713 7.22677 45.7466 7.83711C44.8219 8.44746 44.1012 9.31497 43.6756 10.3299C43.25 11.3449 43.1386 12.4617 43.3556 13.5392C43.5726 14.6167 44.1081 15.6064 44.8945 16.3833C45.6809 17.1601 46.6828 17.6891 47.7736 17.9034C48.8643 18.1178 49.9949 18.0078 51.0224 17.5874C52.0499 17.1669 52.9281 16.455 53.5459 15.5415C54.1638 14.6281 54.4936 13.5542 54.4936 12.4556C54.4919 10.9829 53.8989 9.57108 52.8448 8.52976C51.7906 7.48843 50.3614 6.90268 48.8706 6.901ZM48.8706 15.85C48.191 15.85 47.5266 15.6509 46.9615 15.2779C46.3964 14.9049 45.956 14.3748 45.6959 13.7546C45.4358 13.1343 45.3678 12.4518 45.5004 11.7934C45.633 11.1349 45.9602 10.5301 46.4408 10.0554C46.9214 9.58067 47.5336 9.25738 48.2002 9.12641C48.8668 8.99543 49.5577 9.06266 50.1856 9.31957C50.8134 9.57649 51.3501 10.0116 51.7277 10.5698C52.1053 11.128 52.3068 11.7842 52.3068 12.4556C52.3068 13.3558 51.9448 14.2192 51.3003 14.8558C50.6559 15.4924 49.7819 15.85 48.8706 15.85Z" fill="#343434"/>
<path d="M108.447 4.89367C107.566 3.85924 105.943 3.43494 102.835 3.43494H91.563C88.3868 3.43494 86.7329 3.88397 85.8558 4.98499C85 6.06128 85 7.64305 85 9.83241V14.005C85 18.2455 86.0151 20.3987 91.563 20.3987H102.835C105.527 20.3987 107.02 20.0264 107.985 19.1137C108.975 18.1776 109.398 16.6497 109.398 14.0044V9.83241C109.398 7.52318 109.333 5.9319 108.447 4.89367ZM100.666 12.4962L95.5475 15.139C95.4275 15.201 95.2934 15.2313 95.1582 15.2271C95.0229 15.2229 94.891 15.1844 94.7752 15.1151C94.6594 15.0459 94.5636 14.9483 94.4972 14.8318C94.4307 14.7154 94.3957 14.5839 94.3957 14.4502V9.17916C94.3957 9.04561 94.4305 8.91432 94.4968 8.79793C94.5631 8.68154 94.6586 8.58397 94.7741 8.51463C94.8897 8.4453 95.0213 8.40653 95.1565 8.40206C95.2916 8.39759 95.4256 8.42757 95.5456 8.48911L100.664 11.1148C100.792 11.1806 100.898 11.2796 100.973 11.4011C101.048 11.5227 101.087 11.6621 101.087 11.8042C101.087 11.9464 101.048 12.0858 100.973 12.2073C100.898 12.3289 100.792 12.4279 100.664 12.4936L100.666 12.4962Z" fill="#343434"/>
</svg>
