<svg width="69" height="91" viewBox="0 0 69 91" fill="none" xmlns="http://www.w3.org/2000/svg">
<path d="M54.2807 71.5654L16.322 82.8164C10.7076 84.4805 6.80415 81.1017 7.63588 75.3112L11.5001 50.7756C21.87 48.1666 33.8725 51.3372 44.6474 46.2799L57.471 60.54C61.3268 64.9411 59.892 69.9022 54.2807 71.5654ZM65.5431 60.937L29.7052 21.5783C29.7052 21.5783 26.3647 9.57829 24.8798 4.56841C23.3949 -0.441464 19.7835 0.628944 17.5816 1.2816C15.3858 1.93243 8.85092 3.86939 7.32437 4.32186C5.79781 4.77434 2.8505 5.18163 4.46204 10.6186C6.20018 16.4828 9.68879 27.5112 9.68879 27.5112L1.087 80.0419C0.00380119 87.5307 5.06074 91.8978 12.3157 89.7474L36.8671 82.4704L61.4169 75.1938C68.6734 73.0429 70.5292 66.6268 65.5431 60.937Z" fill="white"/>
</svg>
