<svg width="54" height="55" viewBox="0 0 54 55" fill="none" xmlns="http://www.w3.org/2000/svg">
<circle cx="27" cy="27.5" r="26.5" fill="white" stroke="#6B6B6B"/>
<g clip-path="url(#clip0_1_2918)">
<path fill-rule="evenodd" clip-rule="evenodd" d="M39.9494 27.4354C40.0335 27.5193 40.1002 27.6189 40.1457 27.7286C40.1912 27.8383 40.2146 27.9558 40.2146 28.0746C40.2146 28.1933 40.1912 28.3109 40.1457 28.4206C40.1002 28.5302 40.0335 28.6299 39.9494 28.7137L33.6302 35.0329C33.504 35.1594 33.343 35.2457 33.1677 35.2806C32.9923 35.3156 32.8106 35.2977 32.6454 35.2293C32.4803 35.1608 32.3392 35.0449 32.24 34.8961C32.1408 34.7474 32.088 34.5725 32.0884 34.3937L32.0884 29.88L16.7419 29.88C16.263 29.88 15.8038 29.6898 15.4652 29.3512C15.1266 29.0126 14.9364 28.5534 14.9364 28.0746C14.9364 27.5957 15.1266 27.1365 15.4652 26.7979C15.8038 26.4593 16.263 26.2691 16.7419 26.2691L32.0884 26.2691L32.0884 21.7554C32.088 21.5766 32.1408 21.4018 32.24 21.253C32.3392 21.1043 32.4803 20.9883 32.6454 20.9199C32.8106 20.8514 32.9923 20.8335 33.1677 20.8685C33.343 20.9035 33.504 20.9897 33.6302 21.1163L39.9494 27.4354Z" fill="#343434"/>
</g>
<defs>
<clipPath id="clip0_1_2918">
<rect width="25.2766" height="25.2766" fill="white" transform="translate(40.2129 15.4363) rotate(90)"/>
</clipPath>
</defs>
</svg>
