<svg width="106" height="96" viewBox="0 0 106 96" fill="none" xmlns="http://www.w3.org/2000/svg">
<path d="M103.016 1.4347C80.5192 21.269 53.8859 35.6057 28.2963 50.9474C27.0765 51.6776 28.1846 53.5889 29.4087 52.8544C55.1658 37.4096 81.9323 22.9613 104.58 2.9981C105.649 2.0532 104.082 0.498394 103.016 1.4347Z" fill="#E0E0E0"/>
<path d="M101.161 3.34596C86.0212 24.2927 66.8526 41.8592 50.8065 62.0672C49.9303 63.171 51.4851 64.743 52.3698 63.6306C68.5319 43.2723 87.8122 25.564 103.068 4.45839C103.906 3.30303 101.986 2.2035 101.161 3.34596Z" fill="#E0E0E0"/>
<path d="M51.8717 65.4861C63.5756 72.0918 76.9288 74.716 88.9247 80.6431C90.196 81.2745 91.317 79.3675 90.0414 78.7361C78.0455 72.809 64.6837 70.1805 52.9884 63.5791C51.7472 62.879 50.6348 64.786 51.8717 65.4861Z" fill="#E0E0E0"/>
<path d="M102.802 1.09106C103.27 14.3283 102.226 27.6599 100.302 40.7554C98.3951 53.7563 95.6763 67.1095 90.2131 79.1312C89.629 80.4197 91.5316 81.5407 92.1201 80.2479C97.5962 68.1918 100.371 54.946 102.346 41.9193C104.391 28.4502 105.49 14.7148 105.009 1.09106C104.958 -0.330582 102.75 -0.334877 102.802 1.09106Z" fill="#E0E0E0"/>
<path d="M103.609 0.0259285C68.1967 7.16422 35.0737 22.2912 0.769497 33.1533C-0.583428 33.5785 -0.00359451 35.7131 1.35792 35.2836C35.6621 24.4172 68.7851 9.29454 104.197 2.15195C105.593 1.87278 105.001 -0.257542 103.609 0.0259285Z" fill="#E0E0E0"/>
<path d="M0.503545 35.1719C8.84014 41.5543 19.1181 44.7884 27.4547 51.1708C28.5843 52.0384 29.6795 50.1185 28.5671 49.2638C20.2348 42.8814 9.95254 39.6473 1.62024 33.2649C0.49066 32.3973 -0.60886 34.3172 0.503545 35.1719Z" fill="#E0E0E0"/>
<path d="M26.9435 50.5095C30.6931 65.3831 36.6373 79.8916 38.7333 95.1431C38.9051 96.3672 40.5072 96.0021 40.8636 95.1431C45.2145 84.6332 48.3069 73.651 52.6534 63.1411C53.1989 61.8268 51.0599 61.2599 50.5231 62.5569C46.1765 73.0668 43.0841 84.0448 38.7333 94.5547C39.4463 94.5547 40.155 94.5547 40.8636 94.5547C38.7677 79.3031 32.8191 64.7947 29.0739 49.9254C28.726 48.5424 26.5956 49.1308 26.9435 50.5095Z" fill="#E0E0E0"/>
<path d="M64.2626 69.5147C55.6597 77.1856 47.5293 85.4621 39.8584 94.0693C38.9178 95.1258 40.4726 96.6935 41.4218 95.6283C49.0884 87.0255 57.2231 78.7447 65.826 71.0739C66.8912 70.1247 65.3235 68.5698 64.2626 69.5147Z" fill="#E0E0E0"/>
<path d="M36.8432 46.764C36.1216 49.5773 35.1166 52.3347 34.1545 55.0749C33.5962 56.6511 33.0207 58.2188 32.4022 59.7693C32.1831 60.3148 31.9555 60.8516 31.7107 61.3842C31.6248 61.5689 31.5346 61.7493 31.4401 61.9297C31.2082 62.3678 31.0621 62.2089 31.5561 62.0671C30.405 62.3935 30.8946 64.1846 32.05 63.8581C32.8574 63.6262 33.2139 62.5481 33.5189 61.8695C34.2147 60.3147 34.8031 58.7127 35.3872 57.115C36.5683 53.8809 37.7752 50.5995 38.6299 47.258C38.9306 46.0983 37.1395 45.6087 36.8432 46.764Z" fill="#E0E0E0"/>
<path d="M43.518 43.0574C42.6246 47.739 41.2416 52.3561 39.747 56.8788C38.9438 59.3183 38.0633 61.7407 36.9938 64.0772C36.414 65.3485 35.6367 67.423 34.3009 68.0973C33.2358 68.6342 34.1721 70.2362 35.2372 69.6994C36.6331 68.9907 37.4663 67.2812 38.1406 65.9584C39.3346 63.6219 40.2409 61.1265 41.1042 58.6526C42.8136 53.7391 44.3297 48.6624 45.309 43.5471C45.5323 42.3788 43.7456 41.8806 43.518 43.0574Z" fill="#E0E0E0"/>
<path d="M50.1967 38.9774C45.4679 52.7515 40.2538 66.444 36.4742 80.523C36.1606 81.6783 37.9516 82.168 38.2609 81.0126C42.0405 66.9379 47.2589 53.2454 51.9834 39.4671C52.3743 38.3332 50.5833 37.8521 50.1967 38.9774Z" fill="#E0E0E0"/>
<path d="M56.8752 34.1542C51.4163 53.821 41.1641 72.0919 37.9557 92.3901C38.5613 92.4717 39.1712 92.5576 39.7768 92.6392C39.7768 91.6471 39.7768 90.6592 39.7768 89.6714C39.7768 88.4731 37.9214 88.4731 37.9214 89.6714C37.9214 90.6592 37.9214 91.6471 37.9214 92.6392C37.9214 93.6571 39.5792 93.9406 39.7424 92.884C42.9551 72.5858 53.203 54.3149 58.6619 34.6481C58.984 33.4927 57.193 33.0031 56.8752 34.1542Z" fill="#E0E0E0"/>
<path d="M63.1458 31.0618C62.6562 35.4598 60.9811 39.9396 59.684 44.1444C58.8895 46.7342 58.0433 49.3112 57.0984 51.8496C56.7506 52.7859 56.3812 53.7136 55.956 54.6198C55.797 54.9506 55.6295 55.2727 55.4406 55.5862C55.1227 56.1145 55.2473 55.5862 55.7885 55.7623C54.646 55.393 54.165 57.184 55.2945 57.549C56.6604 57.9957 57.4463 55.8139 57.8415 54.9291C59.0011 52.3263 59.8859 49.6033 60.7621 46.8974C62.4028 41.8165 64.4042 36.3962 65.0012 31.0618C65.1344 29.8721 63.2789 29.8849 63.1458 31.0618Z" fill="#E0E0E0"/>
<path d="M69.9493 26.5132C67.1833 33.0158 66.5949 40.1283 64.2928 46.7641C63.8976 47.898 65.6929 48.379 66.0795 47.258C68.3301 40.7811 68.8541 33.7889 71.5513 27.4495C72.0152 26.3628 70.4175 25.4136 69.9493 26.5132Z" fill="#E0E0E0"/>
<path d="M75.7906 22.6522C75.0132 27.3681 74.3303 32.1055 73.1964 36.7484C72.9129 37.9123 74.6996 38.4062 74.9831 37.2423C76.1213 32.5994 76.7999 27.862 77.5816 23.1461C77.7748 21.9779 75.9882 21.4754 75.7906 22.6522Z" fill="#E0E0E0"/>
<path d="M82.469 18.5717C81.348 21.8016 81.305 25.2633 80.6135 28.5877C80.373 29.7559 82.1597 30.2541 82.4045 29.0816C83.0917 25.7573 83.1347 22.2955 84.2557 19.0656C84.6508 17.9318 82.8598 17.4507 82.469 18.5717Z" fill="#E0E0E0"/>
<path d="M89.5173 13.0098C89.1393 15.2647 88.7356 17.5067 88.0312 19.6843C87.6662 20.8267 89.4571 21.3121 89.8222 20.1782C90.5223 17.9963 90.9303 15.7586 91.304 13.5038C91.5016 12.3312 89.7148 11.833 89.5173 13.0098Z" fill="#E0E0E0"/>
</svg>
