<svg width="100" height="45" viewBox="0 0 100 45" fill="none" xmlns="http://www.w3.org/2000/svg">
<path d="M72.3644 34.9828C72.3558 35.0687 72.3429 35.1546 72.3343 35.2405C75.8347 35.6915 79.3265 36.3916 82.8399 36.529C86.5078 36.6665 90.2015 36.3444 93.8695 36.0609C95.9568 35.8977 96.4722 34.5748 95.5617 32.7623C93.7922 29.249 91.1507 26.6591 87.2809 25.5897C85.2751 25.0356 84.0898 24.2711 84.5622 21.8144C84.7211 20.964 83.8621 19.6067 83.0718 18.9668C81.9336 18.0477 80.542 17.6998 79.0989 18.941C77.1662 20.6075 76.1869 20.178 75.6672 17.6869C75.5126 16.9309 75.4439 16.145 75.2162 15.4105C73.1117 8.59865 68.4387 6.20205 61.8975 8.50417C59.1444 9.47054 57.057 11.4935 57.0871 14.8479C57.0999 16.4198 57.0913 17.9961 57.0913 19.5724C55.4592 19.3404 53.8229 19.1343 52.1951 18.8766C48.4756 18.2882 45.2543 19.6883 44.361 22.3126C43.4419 25.0141 44.7432 27.6169 48.5572 29.3263C52.1865 30.9498 55.9789 32.3758 59.8401 33.2691C63.929 34.2183 68.1854 34.4417 72.3644 34.9828ZM55.2574 8.77045C52.9467 7.3488 50.5501 5.51485 47.87 4.29507C40.8692 1.10818 33.4173 2.34513 29.307 7.46047C27.9068 9.19994 27.2583 11.5665 26.3735 13.6882C25.6863 15.3375 24.9433 15.578 23.5216 14.3668C22.5639 13.5465 20.9962 12.3181 20.2574 12.6231C19.1708 13.0697 18.1915 14.6245 17.8737 15.883C17.3755 17.8544 16.4735 18.3741 14.5021 18.5502C11.268 18.8465 8.0167 19.465 5.46977 21.8831C1.90492 25.2633 2.00369 32.7065 5.69739 34.9442C11.1435 38.2513 17.0791 39.7116 23.4143 39.7632C30.9735 39.8276 38.494 39.3981 46.0876 40.4847C53.2903 41.5198 60.6777 41.2836 67.9835 41.5628C69.9549 41.6401 71.5054 40.9958 71.9692 38.1482C67.962 37.6328 63.9806 37.4782 60.1881 36.5462C54.4199 35.1246 48.278 34.4546 43.8799 29.554C41.7196 27.1445 40.6673 24.6448 41.6766 21.5781C42.7847 18.2152 45.3489 16.4413 48.7892 16.0462C50.4556 15.8529 52.165 16.0118 53.7628 16.0118C54.2223 13.7784 54.6518 11.6953 55.2574 8.77045ZM75.547 38.7367C74.0867 44.4834 69.7917 45.1019 64.9985 44.7497C55.9962 44.0839 47.0024 43.2765 37.9915 42.7654C33.6235 42.5206 29.2254 42.8599 24.8445 42.8642C18.0455 42.8728 11.7834 41.2106 5.44401 38.4661C-0.994191 35.6829 -2.07653 23.2918 4.11256 19.422C6.86995 17.6997 10.2329 16.9524 13.3081 15.7241C13.9438 15.4707 14.7985 15.1872 15.0691 14.6675C17.921 9.17419 18.329 8.95085 24.3936 10.2909C27.1939 3.56922 32.0988 -0.206104 39.6666 0.0086441C46.4956 0.20192 52.4657 2.33654 57.1816 7.80837C60.9741 4.65584 65.501 3.89134 69.9935 5.24427C74.7051 6.65732 76.9901 10.7676 78.2743 14.7963C80.5163 15.2602 82.5392 15.359 84.2572 16.1407C85.5543 16.7248 87.2466 18.0949 87.3797 19.2717C87.689 22.0764 89.583 22.7421 91.4857 24.0306C94.4235 26.0235 97.3871 28.1924 98.594 31.9162C99.8094 35.6829 98.6241 38.3716 94.6984 39.0201C91.082 39.6128 87.3582 39.7417 83.686 39.7202C81.0403 39.7073 78.4032 39.1017 75.547 38.7367Z" fill="#E0E0E0"/>
</svg>
