<svg width="130" height="98" viewBox="0 0 130 98" fill="none" xmlns="http://www.w3.org/2000/svg">
<path d="M58.0366 53.1521L9.09389 22.4049L66.5352 8.55896L115.008 38.6959L58.0366 53.1521Z" fill="white"/>
<path d="M108.859 70.5737L105.544 70.0471L110.758 37.219L114.073 37.7455L108.859 70.5737Z" fill="white"/>
<path d="M112.264 72.3152C112.698 69.583 110.701 66.994 107.802 66.5335C104.899 66.0725 102.2 67.9155 101.766 70.6477C101.332 73.3811 103.327 75.9697 106.23 76.4308C109.128 76.8912 111.83 75.0486 112.264 72.3152Z" fill="white"/>
<path d="M104.387 72.6684C104.387 72.6684 98.9249 80.214 98.5963 92.9839L104.565 93.9321L108.042 72.0458C108.042 72.0458 104.281 73.318 104.387 72.6684Z" fill="white"/>
<path d="M111.939 77.912C111.939 77.912 116.664 84.4391 116.948 95.4853L111.785 96.3055L108.778 77.3735C108.778 77.3735 112.031 78.4739 111.939 77.912Z" fill="white"/>
<path d="M89.3192 48.8382C89.2818 49.0734 61.786 56.2291 56.4795 57.6082C51.8604 54.6525 27.9378 39.3291 27.9751 39.0939L22.6882 72.377C29.6548 81.995 45.7748 85.9308 50.9641 86.9756L50.9573 87.0181C50.9573 87.0181 51.2587 87.066 51.7892 87.1357C52.314 87.2336 52.6153 87.2815 52.6153 87.2815L52.6221 87.2389C57.882 87.854 74.427 89.1069 84.0322 82.1214L89.3192 48.8382Z" fill="white"/>
<path d="M80.8196 59.5269C80.7996 59.6527 79.1819 60.3153 76.3428 61.0532C76.3428 61.0532 75.5896 65.4207 75.0791 68.2142C74.447 71.6736 73.8154 73.5511 73.3942 78.1847C73.2004 80.3166 77.991 77.3341 77.991 77.3341L80.8196 59.5269Z" fill="#D0EDFC"/>
</svg>
