<svg width="86" height="87" viewBox="0 0 86 87" fill="none" xmlns="http://www.w3.org/2000/svg">
<path d="M82.224 37.7908C82.2369 32.1086 80.3128 27.1006 77.2032 22.5178C75.7558 20.3875 74.2096 18.283 72.4572 16.4017C64.4771 7.83752 54.7361 2.4473 42.8905 2.92405C28.7857 3.49099 17.1935 9.42239 9.58705 21.8221C7.88193 24.6009 6.34001 27.5301 5.146 30.5581C1.7916 39.1008 1.12158 48.0044 4.52322 56.5213C9.05874 67.8687 16.7081 76.6305 28.5366 81.0887C40.7043 85.6758 52.6702 85.3107 63.1199 77.3564C75.9749 67.5638 82.3314 54.0818 82.224 37.7908ZM44.6041 86.5863C26.8099 87.2134 11.378 77.2361 3.4967 60.4985C-1.48979 49.9199 -0.828345 39.2211 3.49242 28.7284C7.5469 18.8929 13.8047 10.7195 23.1034 5.08872C30.7528 0.463013 38.9906 -0.705238 47.6794 0.372803C50.1447 0.682045 52.5972 1.12874 55.0281 1.65273C62.6561 3.302 68.742 7.47674 73.6813 13.391C78.1567 18.7511 82.7051 24.1499 84.1997 31.2195C85.9736 39.5862 85.2864 47.8455 82.1381 55.8127C79.0715 63.5694 74.9784 70.6218 68.7292 76.39C61.84 82.7466 53.8641 86.0967 44.6041 86.5863Z" fill="#E0E0E0"/>
<path d="M16.2742 30.6956C9.26908 40.0587 15.2606 59.4291 25.9852 66.4901C27.5185 65.8587 28.7942 65.3347 30.0698 64.8107C29.9753 66.1422 29.8765 67.4694 29.7562 69.1315C29.6918 69.0929 30.044 69.3205 30.4048 69.5352C35.2195 72.3785 40.2962 72.4644 45.6091 71.2103C53.5376 69.3377 60.4526 65.9275 65.3833 59.2101C64.0518 57.5221 61.2128 57.5522 60.8778 54.1978C63.2443 55.1384 65.1556 55.8986 67.0454 56.6502C75.9661 41.6092 71.7528 25.3053 59.5979 17.9867C58.0432 18.8156 56.7245 19.52 55.4017 20.2243C55.5133 18.7039 55.6251 17.1792 55.7539 15.444C45.5189 8.26279 22.8928 15.7661 18.3745 27.3455C19.0746 28.6425 19.6415 29.6819 20.2084 30.7256C19.0488 30.717 17.8891 30.7084 16.2742 30.6956ZM74.7464 37.9713C75.6569 56.0575 63.6438 70.6992 45.9184 74.0622C39.3986 75.3034 33.626 74.6162 28.0683 71.395C22.9143 68.4057 18.8727 64.1751 15.8619 59.0554C12.1983 52.832 10.1925 46.0717 10.8754 38.8217C11.6357 30.7858 15.892 24.2488 21.643 19.069C28.6524 12.7553 37.5602 10.2428 46.8332 9.83045C53.8426 9.51691 59.5893 13.1891 64.5328 17.7891C70.3611 23.2094 74.3942 29.7077 74.7464 37.9713Z" fill="#E0E0E0"/>
<path d="M40.6524 18.6782C41.258 20.7227 42.1299 22.7284 42.409 24.8115C42.9803 29.0721 43.2208 33.3714 43.6074 37.6535C43.8608 40.4582 45.2308 41.2828 47.9109 40.3036C51.2181 39.0924 54.5124 37.8254 57.8668 36.7602C58.5282 36.5497 59.4516 37.1468 60.2548 37.3701C59.7179 38.0143 59.3099 38.9764 58.6227 39.2513C55.7536 40.3938 52.8158 41.373 49.8781 42.3351C48.1171 42.9149 46.4764 43.2456 45.4972 45.3416C44.5136 47.4418 40.5793 47.648 38.827 46.1104C37.0574 44.5556 37.4011 41.7338 39.3338 39.7151C40.0425 38.9807 40.6095 37.7008 40.5493 36.7129C40.2487 31.7393 39.6989 26.7829 39.2866 21.8136C39.205 20.8601 39.3467 19.8851 39.3897 18.9231C39.8106 18.8415 40.2314 18.7599 40.6524 18.6782Z" fill="#E0E0E0"/>
</svg>
